<?xml version="1.0" encoding="utf-8"?>
<!-- Generator: Adobe Illustrator 25.3.1, SVG Export Plug-In . SVG Version: 6.00 Build 0)  -->
<svg version="1.1" id="Layer_1" xmlns="http://www.w3.org/2000/svg" xmlns:xlink="http://www.w3.org/1999/xlink" x="0px" y="0px"
	 viewBox="0 0 493 432" style="enable-background:new 0 0 493 432;" xml:space="preserve">
<style type="text/css">
	.st0{fill:#0BC7E0;}
	.st1{fill:#EDB043;}
</style>
<path class="st0" d="M348.1,154.3c37.8,0,75.6,0.1,113.4-0.1c5.7,0,9.6,1.8,12.8,6.7c6.2,9.6,11.6,19.5,13,31c1.6,13-3,23.3-14,30.4
	c-11.7,7.7-24.8,11.5-38.7,11.7c-26,0.4-52,0.2-78,0c-4.5,0-6.3,1.8-7.1,5.8c-1,4.3-0.8,8.6-0.3,12.9c2.2,19.1-2.5,35.4-19.2,46.6
	c-2.4,1.6-1.7,3.3-1.3,5.2c1.9,9.8,2,19.6-0.6,29.2c-3.4,12.3-10.8,21.6-21.5,28.4c-2.1,1.4-3.3,2.8-3.5,5.5
	c-2.6,28.6-20.8,49.1-49.5,55.3c-29.3,6.3-58,2.4-86.2-6.4c-26.4-8.3-50-21.7-70.4-40.5c-2-1.8-4-2-6.4-2c-23.7,0-47.3,0-71,0
	c-7.8,0-10.1-2.4-10.2-10.1C8.7,307.4,8,250.7,7,194.1c-0.1-6.6,2.2-10.3,7.9-13.4c30.9-16.7,61.6-33.7,92.5-50.5
	c3.2-1.7,5.5-3.9,7.3-7.2c19.7-35.9,39.6-71.7,59.2-107.6c2.4-4.3,5.3-6.8,10.1-7.9c9-2,17.9-3.9,27.1-3.5
	c17.4,0.8,28.2,10.7,30.2,28c1.9,16.8-2.6,32.7-7.7,48.4c-4.7,14.8-10.9,29-16.6,43.4c-0.9,2.3-1.8,4.7-2.2,7.1
	c-2.6,13.6,5.4,23.2,19.3,23.3C272.1,154.3,310.1,154.3,348.1,154.3z M22.3,276c0.7,0,1.5,0,2.2,0c0,26.1,0.1,52.3-0.1,78.4
	c0,3.8,1.2,4.7,4.8,4.7c22.2-0.2,44.3,0,66.5-0.1c3.6,0,6.4,1,8.9,3.5c17.7,17.2,38.3,29.6,61.5,37.8c25.8,9.1,52.2,13.3,79.5,8.8
	c25.1-4.2,41.9-21.5,42.7-44.8c0.2-7,2.5-10.8,8.6-14c8.6-4.5,14-11.8,16.6-21.3c2.8-10.1,1.5-19.7-1.7-29.4
	c-1.6-4.7-0.4-7.9,3.8-10c15.7-7.8,21.2-18.1,18.8-35.4c-0.8-5.9-0.4-11.7,0.8-17.4c2.3-11.4,10.1-17.7,21.6-17.7
	c24.8,0,49.6-0.1,74.5,0c7.8,0.1,15.2-1.5,22.4-4.4c8-3.2,14.6-8.2,16.6-17.2c1.8-8.1-1.4-15.3-4.9-22.4c-2-4.2-4.7-5.9-9.6-5.9
	c-73.8,0.2-147.6,0.1-221.4,0.1c-7.5,0-14.6-1.8-20.9-5.6c-13.8-8.3-18.3-25.7-11.5-42.8c8.1-20.4,17.2-40.3,22.2-61.8
	c1.9-8.3,3.7-16.6,2.4-25.2c-1.3-9-5.6-13.1-14.5-14.5c-6.9-1.1-13.6,0.4-20.3,1.6c-3.2,0.6-5.1,2.3-6.7,5.1
	c-19.3,35.2-38.7,70.3-58,105.5c-2.6,4.7-5.8,8.1-10.6,10.7c-30.3,16.4-60.3,33-90.5,49.5c-2.4,1.3-3.8,2.6-3.8,5.7
	C22.3,223.7,22.3,249.9,22.3,276z"/>
<path class="st1" d="M22.3,276c0-26.1,0.1-52.3-0.1-78.4c0-3.1,1.4-4.4,3.8-5.7c30.2-16.5,60.3-33.1,90.5-49.5
	c4.8-2.6,8-6,10.6-10.7c19.3-35.2,38.7-70.3,58-105.5c1.6-2.8,3.4-4.6,6.7-5.1c6.7-1.2,13.4-2.7,20.3-1.6
	c8.9,1.4,13.2,5.5,14.5,14.5c1.3,8.6-0.5,16.9-2.4,25.2c-5,21.5-14.1,41.4-22.2,61.8c-6.8,17.1-2.3,34.4,11.5,42.8
	c6.4,3.8,13.4,5.6,20.9,5.6c73.8-0.1,147.6,0,221.4-0.1c4.9,0,7.5,1.7,9.6,5.9c3.4,7.1,6.6,14.3,4.9,22.4c-2,9-8.5,14-16.6,17.2
	c-7.1,2.9-14.6,4.4-22.4,4.4c-24.8-0.2-49.6,0-74.5,0c-11.5,0-19.3,6.3-21.6,17.7c-1.2,5.7-1.6,11.5-0.8,17.4
	c2.4,17.3-3.1,27.6-18.8,35.4c-4.2,2.1-5.3,5.3-3.8,10c3.2,9.6,4.4,19.3,1.7,29.4c-2.6,9.5-8.1,16.9-16.6,21.3c-6,3.2-8.3,7-8.6,14
	c-0.8,23.3-17.6,40.7-42.7,44.8c-27.3,4.5-53.7,0.3-79.5-8.8c-23.2-8.2-43.8-20.6-61.5-37.8c-2.6-2.5-5.4-3.5-8.9-3.5
	c-22.2,0.1-44.3,0-66.5,0.1c-3.7,0-4.9-0.8-4.8-4.7c0.2-26.1,0.1-52.3,0.1-78.4C23.7,276,23,276,22.3,276z"/>
</svg>
