<svg xmlns="http://www.w3.org/2000/svg" xmlns:xlink="http://www.w3.org/1999/xlink" viewBox="0 0 274.51 240.9"><defs><style>.cls-1{fill:#fff;}.cls-2{clip-path:url(#clip-path);}.cls-3{fill:none;stroke:#ffd3d4;stroke-miterlimit:10;}</style><clipPath id="clip-path"><circle class="cls-1" cx="133.88" cy="120.45" r="120.45"/></clipPath></defs><title>Sun</title><g id="Layer_2" data-name="Layer 2"><g id="Assets"><circle class="cls-1" cx="133.88" cy="120.45" r="120.45"/><g class="cls-2"><path class="cls-3" d="M25.75,40.83s28.59-22.36,82.33-6.23,97.16-1.72,129.84-30.1"/><path class="cls-3" d="M4.68,90.06s32.25,20,111.78-14.62,100-33.75,147.47-6.66"/><path class="cls-3" d="M255.54,67.7S238.13,66,222,73.5,206.53,92,255.54,85.33"/><path class="cls-3" d="M.17,120.65s21.49-7.59,55.89-3.51-12.69,34-51.38,40.41"/><path class="cls-3" d="M18.65,179.48s86.47-86.09,255.8-65.18"/><path class="cls-3" d="M22.47,188.34S76,134,146.55,137.75s95.79,2.85,123.1-9.83"/><path class="cls-3" d="M31.87,198.24S154.65,215.46,271,150.44"/><path class="cls-3" d="M138.78,215c-11.61,2.13-35.8,15.1-1.49,12.68S172.35,208.82,138.78,215Z"/></g></g></g></svg>